:SAMPLES-PER-SECOND 30
:FULLY-SPECIFIED
:DEGREES
293
root  35.02426748 36.50942825 -14.81389173 10.44740486 6.549148083 3.296147108
lowerback  -8.486100197 2.119640112 1.834279895
upperback  -4.273890018 2.311870098 -4.013070107
thorax  0.5670350194 0.9139760137 -4.991950035
lowerneck  -16.21080017 0.7985450029 2.581099987
upperneck  19.48859978 -0.8857250214 3.964709997
head  8.799309731 0.03114515916 0.7826808691
lclavicle  0 -4.497500157e-015 -2.743230041e-014
lhumerus  -45.67300034 26.42819977 68.26129913
lradius  -0.2528988719 -6.507048965e-006 27.2840004
lwrist  4.824992743e-007 -3.790274832e-007 -30.71789932
lhand  -4.385901518e-031 -36.37929916 -10.68710041
lfingers  90 7.125020027 -90
lthumb  94.57459891 -25.540752 100.5131587
rclavicle  0 -4.497500157e-015 -2.743230041e-014
rhumerus  25.30350113 15.1868 -58.22240067
rradius  -5.16745672e-007 2.214343908e-008 87.8219986
rwrist  -3.062178075e-005 0.01194404531 -177.7559967
rhand  -1.770005545e-031 4.060510159 -5.005809784
rfingers  -90 -7.125020027 -90
rthumb  -83.87027243 -10.69916081 -59.9519694
rfemur  -13.32024193 12.73083878 14.40611649
rtibia  -1.633666754 1.957399607 22.25145531
rfoot  -1.535382271 -16.54134369 -42.31886673
rtoes  3.863158045 19.63836137 -101.3608614
lfemur  -11.82805538 -20.94688416 -17.75173569
ltibia  2.058445692 1.601510644 16.11752701
lfoot  0.642160356 -28.84322739 32.59127045
ltoes  -8.568016355 -18.14006871 -115.8233677
294
root  35.0298063 36.50882451 -14.81265271 10.4371624 6.412509441 3.299773693
lowerback  -8.496709824 2.071579933 1.762719989
upperback  -4.23319006 2.256829977 -3.989860058
thorax  0.6060010195 0.8901770115 -4.93114996
lowerneck  -16.35950089 0.7334120274 2.645400047
upperneck  19.65640068 -0.9691299796 3.786200047
head  8.883079529 -0.01809750684 0.7025691271
lclavicle  0 -4.497500157e-015 -2.743230041e-014
lhumerus  -45.64619827 26.55439949 68.21230316
lradius  -0.2544847727 -6.507048965e-006 27.26580048
lwrist  4.824992743e-007 -3.790274832e-007 -30.77569962
lhand  -0 -36.34569931 -10.66759968
lfingers  90 7.125020027 -90
lthumb  94.55495844 -25.52278053 100.4755595
rclavicle  0 -4.497500157e-015 -2.743230041e-014
rhumerus  23.84449768 15.11870003 -58.54719925
rradius  -5.16745672e-007 2.214343908e-008 89.02929688
rwrist  -3.062178075e-005 0.01194404531 -178.0700073
rhand  -0 3.965660095 -4.691810131
rfingers  -90 -7.125020027 -90
rthumb  -83.73572903 -10.96697402 -60.01514695
rfemur  -13.33238316 12.75811195 14.36398315
rtibia  -1.620172977 1.912974 22.25466537
rfoot  -1.526940227 -16.63438988 -42.23330688
rtoes  3.873909414 19.63632385 -101.3928533
lfemur  -11.77912331 -20.92564774 -17.79014778
ltibia  2.064652205 1.582769275 16.07695961
lfoot  0.6538157463 -28.79385376 32.70975876
ltoes  -8.568534786 -18.13983029 -115.8250329
295
root  35.03526102 36.50771915 -14.8126497 10.42472553 6.280600071 3.287521362
lowerback  -8.518269539 2.005369902 1.663059473
upperback  -4.191770077 2.178930044 -3.966650009
thorax  0.6486579776 0.8549209833 -4.856339931
lowerneck  -16.47459984 0.6555470228 2.597039938
upperneck  19.80999947 -1.06546998 3.717309952
head  8.956850052 -0.07179880142 0.6760951281
lclavicle  0 -4.497500157e-015 -2.743230041e-014
lhumerus  -45.6570015 26.67040062 68.13220215
lradius  -0.2560704947 -6.507048965e-006 27.27400017
lwrist  4.824992743e-007 -3.790274832e-007 -30.77129936
lhand  -0 -36.36439896 -10.68900013
lfingers  90 7.125020027 -90
lthumb  94.56799749 -25.54317948 100.497352
rclavicle  0 -4.497500157e-015 -2.743230041e-014
rhumerus  22.58889771 14.99870014 -59.26279831
rradius  -5.16745672e-007 2.214343908e-008 89.82430267
rwrist  -3.062178075e-005 0.01194404531 -178.1369934
rhand  -1.770405193e-031 4.238800049 -4.954619884
rfingers  -90 -7.125020027 -90
rthumb  -83.79667712 -10.75118695 -59.77201385
rfemur  -13.31737518 12.79671478 14.33365631
rtibia  -1.591018796 1.877425551 22.21341133
rfoot  -1.506929994 -16.7159481 -42.17384338
rtoes  3.868747281 19.63730288 -101.3774924
lfemur  -11.74518204 -20.83432388 -17.80506706
ltibia  2.054831982 1.582962036 16.06534767
lfoot  0.660495162 -28.79965973 32.77017975
ltoes  -8.552365118 -18.14725805 -115.7731069
296
root  35.04058658 36.50482058 -14.81332103 10.37360191 6.153264046 3.282932997
lowerback  -8.579809189 1.963909864 1.619019508
upperback  -4.16106987 2.127619982 -3.970809937
thorax  0.7079709768 0.8310220242 -4.838809967
lowerneck  -16.52630043 0.5994539857 2.531150103
upperneck  19.88829994 -1.151149988 3.774509907
head  8.994580269 -0.1110130027 0.6960219741
lclavicle  0 -4.497500157e-015 -2.743230041e-014
lhumerus  -45.64179993 26.73310089 68.07740021
lradius  -0.2576557994 -6.507048965e-006 27.28630066
lwrist  4.824992743e-007 -3.790274832e-007 -30.75429916
lhand  -4.387430788e-031 -36.40639877 -10.70549965
lfingers  90 7.125020027 -90
lthumb  94.59101029 -25.55793571 100.5437188
rclavicle  0 -4.497500157e-015 -2.743230041e-014
rhumerus  21.17609787 14.81289959 -59.75090027
rradius  -5.16745672e-007 2.214343908e-008 90.85230255
rwrist  -3.062178075e-005 0.01194404531 -178.3580017
rhand  -1.770594492e-031 4.320660114 -4.783820152
rfingers  -90 -7.125020027 -90
rthumb  -83.68702182 -10.90218098 -59.67516333
rfemur  -13.27376175 12.85423756 14.31580734
rtibia  -1.57156992 1.860055685 22.19617844
rfoot  -1.480081081 -16.76635551 -42.09534073
rtoes  3.877184092 19.63570209 -101.4025981
lfemur  -11.65030956 -20.77072525 -17.85133934
ltibia  2.059790611 1.570996284 16.02737617
lfoot  0.661003232 -28.78397751 32.83581924
ltoes  -8.582397224 -18.13344845 -115.8695659
297
root  35.04565382 36.50377229 -14.81359737 10.35861397 6.026540756 3.296828032
lowerback  -8.585490227 1.928879976 1.603439808
upperback  -4.153960228 2.082289934 -3.953389883
thorax  0.712954998 0.8089479804 -4.815820217
lowerneck  -16.45260048 0.5458790064 2.377530098
upperneck  19.89159966 -1.217749953 3.902139902
head  8.98418045 -0.1435359865 0.7560859323
lclavicle  0 -4.497500157e-015 -2.743230041e-014
lhumerus  -45.72480011 26.83609962 67.99210358
lradius  -0.2592402995 -6.507048965e-006 27.32519913
lwrist  4.824992743e-007 -3.790274832e-007 -30.80270004
lhand  -0 -36.44319916 -10.77050018
lfingers  90 7.125020027 -90
lthumb  94.6215456 -25.62064896 100.5888757
rclavicle  0 -4.497500157e-015 -2.743230041e-014
rhumerus  19.6094017 14.73709965 -60.11989975
rradius  -5.16745672e-007 2.214343908e-008 91.96399689
rwrist  -3.062178075e-005 0.01194404531 -178.5659943
rhand  -1.772387816e-031 5.02989006 -5.258230209
rfingers  -90 -7.125020027 -90
rthumb  -83.74212933 -10.52569683 -59.024498
rfemur  -13.26857567 12.89187813 14.26984215
rtibia  -1.564996719 1.801657557 22.18621445
rfoot  -1.478457808 -16.86656189 -42.05187225
rtoes  3.889286348 19.63339947 -101.4386146
lfemur  -11.59619427 -20.70507431 -17.90885925
ltibia  2.074439526 1.565235138 15.98724174
lfoot  0.6750612855 -28.77262115 32.9106369
ltoes  -8.578511328 -18.13523869 -115.857081
298
root  35.05072106 36.50365214 -14.81425368 10.33215714 5.894636631 3.294874668
lowerback  -8.592188835 1.893200159 1.566949487
upperback  -4.144509792 2.03779006 -3.933140039
thorax  0.7202500105 0.7876700163 -4.77779007
lowerneck  -16.40509987 0.4315299988 2.182060003
upperneck  19.87989998 -1.33544004 3.954380035
head  8.97317028 -0.2094360292 0.7912909985
lclavicle  0 -4.497500157e-015 -2.743230041e-014
lhumerus  -45.76959991 26.92930031 67.93609619
lradius  -0.2608245611 -6.507048965e-006 27.33880043
lwrist  4.824992743e-007 -3.790274832e-007 -30.80480003
lhand  -4.396359462e-031 -36.56389999 -10.77190018
lfingers  90 7.125020027 -90
lthumb  94.67855814 -25.61779664 100.7181474
rclavicle  0 -4.497500157e-015 -2.743230041e-014
rhumerus  18.04689789 14.67259979 -60.43080139
rradius  -5.16745672e-007 2.214343908e-008 93.04270172
rwrist  -3.062178075e-005 0.01194404531 -178.9559937
rhand  -0 4.728330135 -5.285369873
rfingers  -90 -7.125020027 -90
rthumb  -83.83681797 -10.48820629 -59.32298153
rfemur  -13.23231411 12.89808369 14.23521805
rtibia  -1.547755122 1.738506198 22.13043213
rfoot  -1.458596587 -16.97154808 -41.99526596
rtoes  3.900425752 19.63127342 -101.4717692
lfemur  -11.59128189 -20.67655373 -17.92825699
ltibia  2.039494514 1.515793562 16.0349865
lfoot  0.6624259949 -28.70937538 32.94893646
ltoes  -8.55589799 -18.14563667 -115.7844504
